<svg id="Warstwa_1" data-name="Warstwa 1" xmlns="http://www.w3.org/2000/svg" viewBox="0 0 1392.24 487.59"><defs><style>.cls-1,.cls-2,.cls-3,.cls-4,.cls-5,.cls-6{fill:none;stroke:#231f20;stroke-linecap:round;stroke-miterlimit:10;}.cls-1{stroke-width:16px;}.cls-2{stroke-width:5px;}.cls-3{stroke-width:7px;}.cls-4{stroke-width:8px;}.cls-5{stroke-width:3px;}.cls-6{stroke-width:4px;}.cls-7{fill:#231f20;}</style></defs><rect class="cls-1" x="497.31" y="136.02" width="393.29" height="250.67" rx="25.06"/><path class="cls-2" d="M1062.86,296.58H1064c0-52.95-46.56-95.85-104-95.85s-104,42.9-104,95.85h1.14" transform="translate(-266.04 -198.23)"/><path class="cls-3" d="M763.55,555a49.9,49.9,0,0,1,6.17-21.38c3.93-6.67,9.37-10.81,15.37-10.81h349.82c11.06,0,20.18,14,21.54,32.19" transform="translate(-266.04 -198.23)"/><polygon class="cls-4" points="818.24 139.45 569.67 139.45 569.67 98.75 693.96 85.51 818.24 98.75 818.24 139.45"/><rect class="cls-5" x="741.82" y="343.05" width="16.19" height="27.51" rx="3.82"/><rect class="cls-5" x="633.24" y="343.05" width="16.19" height="27.51" rx="3.82"/><rect class="cls-5" x="575.61" y="343.05" width="16.19" height="27.51" rx="3.82"/><rect class="cls-5" x="796.11" y="343.05" width="16.19" height="27.51" rx="3.82"/><rect class="cls-5" x="690.87" y="343.05" width="16.19" height="27.51" rx="3.82"/><rect class="cls-6" x="565.84" y="140.13" width="33.61" height="185.18"/><rect class="cls-6" x="676.9" y="140.13" width="33.61" height="185.18"/><rect class="cls-6" x="788.46" y="140.13" width="33.61" height="185.18"/><path class="cls-7" d="M1502.29,480.06q1.37-17.25,1.44-35c0-.6,0-1.2,0-1.8,0-66.74-14.13-129.67-39.81-177.2a222.45,222.45,0,0,0-14.12-22.86c62.11,15.89,109.47,99.41,109.47,200.06q0,3.18-.07,6.35a309.17,309.17,0,0,1-2.64,34.9c-10.89,81.53-53.38,145.16-106.77,158.82a220.75,220.75,0,0,0,14.13-22.86C1484.83,581.79,1498.08,532.91,1502.29,480.06Z" transform="translate(-266.04 -198.23)"/><path class="cls-7" d="M1312.08,630.4c49.43,0,90.21-68.48,96.19-157q.75-11.06.76-22.51,0-6.31-.24-12.53c-3.47-93.3-45.44-167-96.71-167-23.39,0-44.85,15.34-61.6,40.89,23.31-67.1,64-111.54,110.26-111.54,72.35,0,131,108.59,131,242.54v.89c0,11.88-.51,23.57-1.43,35-9.36,117-63.8,206.67-129.57,206.67-38.31,0-72.79-30.47-96.74-79C1278.17,621.81,1294.58,630.4,1312.08,630.4Z" transform="translate(-266.04 -198.23)"/><path class="cls-7" d="M1312.08,385.28c16.53,0,30.42,21,34.33,49.31a120.14,120.14,0,0,1-.36,35c-4.35,27.11-17.92,46.88-34,46.88-16.77,0-30.81-21.57-34.49-50.54q-56.62-2.83-116.62-5.2l1.37-35q59.61,2.34,116,5.16C1282.87,404.47,1296.27,385.28,1312.08,385.28Z" transform="translate(-266.04 -198.23)"/><path class="cls-7" d="M1567.21,450.31c0-2.34.07-4.69.07-7,0-73.7-24.73-139.31-63.21-177.07,66.49,8.42,118.54,84.3,118.67,176.73l13.4,1.34-1.27,12.44-1.5,14.77,1.51-14.77q11.88,1.2,23.4,2.44l-3.73,34.8q-11.43-1.23-23.21-2.42l1.66-16.36L1630.07,504l-14.77-1.47c-16.66,64.08-59.59,111.32-111.23,117.86,31-30.42,53.07-78.9,60.48-135.14A319.88,319.88,0,0,0,1567.21,450.31Z" transform="translate(-266.04 -198.23)"/><path class="cls-7" d="M422,480.06q-1.37-17.25-1.44-35c0-.6,0-1.2,0-1.8,0-66.74,14.13-129.67,39.81-177.2a222.45,222.45,0,0,1,14.12-22.86c-62.11,15.89-109.47,99.41-109.47,200.06q0,3.18.07,6.35a309.17,309.17,0,0,0,2.64,34.9c10.89,81.53,53.38,145.16,106.77,158.82a220.75,220.75,0,0,1-14.13-22.86C439.5,581.79,426.25,532.91,422,480.06Z" transform="translate(-266.04 -198.23)"/><path class="cls-7" d="M612.25,630.4c-49.43,0-90.21-68.48-96.19-157q-.75-11.06-.76-22.51,0-6.31.24-12.53c3.47-93.3,45.44-167,96.71-167,23.39,0,44.85,15.34,61.6,40.89-23.31-67.1-64-111.54-110.26-111.54-72.35,0-131,108.59-131,242.54v.89c0,11.88.51,23.57,1.43,35,9.36,117,63.8,206.67,129.57,206.67,38.31,0,72.79-30.47,96.74-79C646.16,621.81,629.75,630.4,612.25,630.4Z" transform="translate(-266.04 -198.23)"/><path class="cls-7" d="M612.25,385.28c-16.53,0-30.42,21-34.33,49.31a120.14,120.14,0,0,0,.36,35c4.35,27.11,17.92,46.88,34,46.88,16.77,0,30.81-21.57,34.49-50.54q56.63-2.83,116.62-5.2l-1.37-35q-59.61,2.34-116,5.16C641.46,404.47,628.06,385.28,612.25,385.28Z" transform="translate(-266.04 -198.23)"/><path class="cls-7" d="M357.12,450.31c0-2.34-.07-4.69-.07-7,0-73.7,24.73-139.31,63.21-177.07-66.49,8.42-118.54,84.3-118.67,176.73l-13.4,1.34,1.27,12.44L291,471.48l-1.5-14.77q-11.88,1.2-23.41,2.44l3.74,34.8q11.42-1.23,23.21-2.42l-1.66-16.36L294.26,504,309,502.49c16.66,64.08,59.59,111.32,111.23,117.86-31-30.42-53.07-78.9-60.48-135.14A319.88,319.88,0,0,1,357.12,450.31Z" transform="translate(-266.04 -198.23)"/></svg>