<svg id="Warstwa_1" data-name="Warstwa 1" xmlns="http://www.w3.org/2000/svg" viewBox="0 0 1392.24 696.36"><defs><style>.cls-1{fill:#231f20;}.cls-2{font-size:148.67px;}.cls-2,.cls-3{font-family:Impact;}.cls-3{font-size:111.89px;}</style></defs><path class="cls-1" d="M974.55,341.68v.57h4v-.57Z" transform="translate(-266.04 -198.23)"/><path class="cls-1" d="M1131.58,326.25h-43.3V294.79l-21.88-2.25c-2.29-52.36-49.14-94.31-106.4-94.31s-104.11,42-106.4,94.31l-21.88,2.25v31.46h-43.3a33.1,33.1,0,0,0-33.06,33.06V559.86a33.1,33.1,0,0,0,33.06,33.06h343.16a33.1,33.1,0,0,0,33.06-33.06V359.31A33.1,33.1,0,0,0,1131.58,326.25Zm-45.46,193.1h-29.61V342.25h29.61ZM978.55,342.25h-4v177.1H944.94V342.25h29.61v-.57h4v.57h74v177.1h-74Zm-111.06,0h73.45v177.1H867.49Zm92.51-139c54.31,0,98.8,39.43,101.38,88.8L960,281.61,858.62,292C861.2,242.66,905.69,203.23,960,203.23ZM839.72,302,960,289.65,1080.28,302v24.24H839.72Zm-5.84,40.24h29.61v177.1H833.88Zm-62.52,17.06a17.08,17.08,0,0,1,17.06-17.06h41.46v177.1H785.09c-5,0-9.71,2.21-13.73,6.34Zm377.28,200.55a17.08,17.08,0,0,1-17.06,17.06H788.42a17.08,17.08,0,0,1-17.06-17.06v-21.8c.43-.91.89-1.79,1.38-2.62,3.45-5.86,7.84-9.09,12.35-9.09h349.82c5.34,0,10.33,4.58,13.73,11.74Zm0-34.2c-3.94-4-8.64-6.31-13.73-6.31h-44.79V342.25h41.46a17.08,17.08,0,0,1,17.06,17.06Z" transform="translate(-266.04 -198.23)"/><path class="cls-1" d="M1020.23,539.78h-8.54a5.32,5.32,0,0,0-5.32,5.32V565a5.32,5.32,0,0,0,5.32,5.32h8.54a5.32,5.32,0,0,0,5.32-5.32V545.1A5.32,5.32,0,0,0,1020.23,539.78Zm2.32,25.19a2.32,2.32,0,0,1-2.32,2.32h-8.54a2.32,2.32,0,0,1-2.32-2.32V545.1a2.32,2.32,0,0,1,2.32-2.32h8.54a2.32,2.32,0,0,1,2.32,2.32Z" transform="translate(-266.04 -198.23)"/><path class="cls-1" d="M911.65,539.78h-8.54a5.33,5.33,0,0,0-5.33,5.32V565a5.33,5.33,0,0,0,5.33,5.32h8.54A5.32,5.32,0,0,0,917,565V545.1A5.33,5.33,0,0,0,911.65,539.78ZM914,565a2.32,2.32,0,0,1-2.32,2.32h-8.54a2.33,2.33,0,0,1-2.33-2.32V545.1a2.33,2.33,0,0,1,2.33-2.32h8.54A2.32,2.32,0,0,1,914,545.1Z" transform="translate(-266.04 -198.23)"/><path class="cls-1" d="M854,539.78h-8.54a5.32,5.32,0,0,0-5.32,5.32V565a5.32,5.32,0,0,0,5.32,5.32H854a5.32,5.32,0,0,0,5.32-5.32V545.1A5.33,5.33,0,0,0,854,539.78ZM856.34,565a2.32,2.32,0,0,1-2.32,2.32h-8.54a2.32,2.32,0,0,1-2.32-2.32V545.1a2.32,2.32,0,0,1,2.32-2.32H854a2.32,2.32,0,0,1,2.32,2.32Z" transform="translate(-266.04 -198.23)"/><path class="cls-1" d="M1074.52,539.78H1066a5.33,5.33,0,0,0-5.32,5.32V565a5.32,5.32,0,0,0,5.32,5.32h8.54a5.32,5.32,0,0,0,5.32-5.32V545.1A5.32,5.32,0,0,0,1074.52,539.78Zm2.32,25.19a2.32,2.32,0,0,1-2.32,2.32H1066a2.32,2.32,0,0,1-2.32-2.32V545.1a2.32,2.32,0,0,1,2.32-2.32h8.54a2.32,2.32,0,0,1,2.32,2.32Z" transform="translate(-266.04 -198.23)"/><path class="cls-1" d="M969.28,539.78h-8.55a5.33,5.33,0,0,0-5.32,5.32V565a5.32,5.32,0,0,0,5.32,5.32h8.55A5.32,5.32,0,0,0,974.6,565V545.1A5.33,5.33,0,0,0,969.28,539.78ZM971.6,565a2.32,2.32,0,0,1-2.32,2.32h-8.55a2.32,2.32,0,0,1-2.32-2.32V545.1a2.32,2.32,0,0,1,2.32-2.32h8.55a2.32,2.32,0,0,1,2.32,2.32Z" transform="translate(-266.04 -198.23)"/><path class="cls-1" d="M974.55,341.68v.57h4v-.57Z" transform="translate(-266.04 -198.23)"/><path class="cls-1" d="M1559.28,443.27q0,3.18-.07,6.35-.18,9.35-.9,18.46-.66,8.32-1.74,16.44c-10.89,81.53-53.38,145.16-106.77,158.82a220.75,220.75,0,0,0,14.13-22.86c20.9-38.69,34.15-87.57,38.36-140.42q.75-9.53,1.12-19.21.28-7.85.32-15.78c0-.6,0-1.2,0-1.8,0-66.74-14.13-129.67-39.81-177.2a222.45,222.45,0,0,0-14.12-22.86C1511.92,259.1,1559.28,342.62,1559.28,443.27Z" transform="translate(-266.04 -198.23)"/><path class="cls-1" d="M1491.74,443.27v.89q0,7.68-.29,15.25-.35,10-1.14,19.74c-9.36,117-63.8,206.67-129.57,206.67-38.31,0-72.79-30.47-96.74-79,14.17,15,30.58,23.6,48.08,23.6,49.43,0,90.21-68.48,96.19-157q.75-11.06.76-22.51v-.28q0-6.18-.24-12.25c-3.47-93.3-45.44-167-96.71-167-23.39,0-44.85,15.34-61.6,40.89,23.31-67.1,64-111.54,110.26-111.54C1433.09,200.73,1491.74,309.32,1491.74,443.27Z" transform="translate(-266.04 -198.23)"/><path class="cls-1" d="M1347.52,450.89a117.51,117.51,0,0,1-1.47,18.73c-4.35,27.11-17.92,46.88-34,46.88-16.77,0-30.81-21.57-34.49-50.54q-54.88-2.74-112.95-5l-3.67-.15,1-26.39.34-8.58,2.3.09q58.39,2.31,113.68,5.07c4.55-26.48,18-45.67,33.76-45.67,16.53,0,30.42,21,34.33,49.31q.72,5.18,1,10.64C1347.48,447.09,1347.52,449,1347.52,450.89Z" transform="translate(-266.04 -198.23)"/><path class="cls-1" d="M1658.28,459.15l-2.63,24.58-1.1,10.22q-11.43-1.23-23.21-2.42l1.21-11.89h0l-1.2,11.89L1630.07,504l-14.77-1.47c-16.66,64.08-59.59,111.32-111.23,117.86,31-30.42,53.07-78.9,60.48-135.14q1-7.9,1.69-16,.77-9.33,1-18.89c0-2.34.07-4.69.07-7,0-73.7-24.73-139.31-63.21-177.07,66.49,8.42,118.54,84.3,118.67,176.73l13.4,1.34-1.27,12.44-1.5,14.77,1.51-14.77Q1646.76,457.91,1658.28,459.15Z" transform="translate(-266.04 -198.23)"/><path class="cls-1" d="M474.53,643.34c-53.39-13.66-95.88-77.29-106.77-158.82q-1.12-8.4-1.79-17-.68-8.82-.85-17.86-.08-3.17-.07-6.35c0-100.65,47.36-184.17,109.47-200.06a222.45,222.45,0,0,0-14.12,22.86c-25.68,47.53-39.81,110.46-39.81,177.2,0,.6,0,1.2,0,1.8q0,7.67.3,15.25.36,9.94,1.14,19.74c4.21,52.85,17.46,101.73,38.36,140.42A220.75,220.75,0,0,0,474.53,643.34Z" transform="translate(-266.04 -198.23)"/><path class="cls-1" d="M660.33,606.8c-24,48.55-58.43,79-96.74,79-65.77,0-120.21-89.72-129.57-206.67q-.81-10-1.16-20.25-.25-7.32-.27-14.74v-.89c0-133.95,58.65-242.54,131-242.54,46.28,0,86.95,44.44,110.26,111.54-16.75-25.55-38.21-40.89-61.6-40.89-51.27,0-93.24,73.68-96.71,167q-.22,5.86-.24,11.84v.69q0,11.44.76,22.51c6,88.52,46.76,157,96.19,157C629.75,630.4,646.16,621.81,660.33,606.8Z" transform="translate(-266.04 -198.23)"/><path class="cls-1" d="M763.36,460.76l-8,.32q-55.75,2.24-108.62,4.88c-3.68,29-17.72,50.54-34.49,50.54-16,0-29.62-19.77-34-46.88a117.51,117.51,0,0,1-1.47-18.73q0-3,.15-6c.17-3.52.49-7,1-10.3,3.91-28.34,17.8-49.31,34.33-49.31,15.81,0,29.21,19.19,33.76,45.67q53.21-2.65,109.35-4.9l6.63-.26.33,8.42Z" transform="translate(-266.04 -198.23)"/><path class="cls-1" d="M359.78,485.21c7.41,56.24,29.48,104.72,60.48,135.14-51.64-6.54-94.57-53.78-111.23-117.86L294.26,504,293,491.53q-11.79,1.19-23.21,2.42l-1.18-11L266,459.15q11.54-1.25,23.41-2.44l1.5,14.77-1.49-14.77-1.27-12.44,13.4-1.34c.13-92.43,52.18-168.31,118.67-176.73C381.78,304,357.05,369.57,357.05,443.27c0,2.35,0,4.7.07,7q.19,9.24.91,18.28Q358.69,477,359.78,485.21Z" transform="translate(-266.04 -198.23)"/><text class="cls-2" transform="matrix(0.78, -0.06, 0.08, 1, 403.96, 559.61)">A</text><text class="cls-2" transform="matrix(0.78, -0.04, 0.06, 1, 473.24, 554.27)">M</text><text class="cls-2" transform="translate(566.83 549.32) rotate(-1.86) scale(0.78 1)">B</text><text class="cls-2" transform="translate(641.53 547.03) rotate(-0.71) scale(0.78 1)">A</text><text class="cls-2" transform="translate(711.08 546.26) rotate(0.43) scale(0.78 1)">S</text><text class="cls-2" transform="matrix(0.78, 0.02, -0.03, 1, 781.69, 546.9)">A</text><text class="cls-2" transform="translate(851.16 548.92) rotate(2.83) scale(0.78 1)">D</text><text class="cls-2" transform="translate(925.73 552.74) rotate(4.08) scale(0.78 1)">A</text><text class="cls-2" transform="translate(995.36 557.94) rotate(4.97) scale(0.78 1)"> </text><text class="cls-3" transform="translate(561.72 659.39) rotate(-2.75) scale(0.78 1)">F</text><text class="cls-3" transform="translate(604.49 657.34) rotate(-1.73) scale(0.78 1)">O</text><text class="cls-3" transform="translate(660.17 655.74) rotate(-0.56) scale(0.78 1)">R</text><text class="cls-3" transform="translate(715.06 655.19) rotate(0.8) scale(0.78 1)">M</text><text class="cls-3" transform="translate(785.55 656.39) rotate(2.14) scale(0.78 1)">Y</text></svg>