<svg id="Warstwa_1" data-name="Warstwa 1" xmlns="http://www.w3.org/2000/svg" xmlns:xlink="http://www.w3.org/1999/xlink" viewBox="0 0 1392.24 696.36"><defs><style>.cls-1,.cls-3{fill:#222831;}.cls-2,.cls-4{fill:#00adb5;}.cls-3{font-size:148.67px;}.cls-3,.cls-4{font-family:Impact;}.cls-4{font-size:111.89px;}.cls-5{opacity:0.29;}.cls-6{fill:url(#Gradient_bez_nazwy_30);}.cls-7{fill:url(#Gradient_bez_nazwy_30-2);}.cls-8{fill:url(#Gradient_bez_nazwy_30-3);}.cls-9{fill:url(#Gradient_bez_nazwy_30-4);}.cls-10{fill:url(#Gradient_bez_nazwy_30-5);}.cls-11{fill:url(#Gradient_bez_nazwy_30-6);}.cls-12{fill:url(#Gradient_bez_nazwy_30-7);}.cls-13{fill:url(#Gradient_bez_nazwy_30-8);}.cls-14{fill:url(#Gradient_bez_nazwy_30-9);}.cls-15{fill:url(#Gradient_bez_nazwy_30-10);}.cls-16{fill:url(#Gradient_bez_nazwy_30-11);}.cls-17{fill:url(#Gradient_bez_nazwy_30-12);}</style><linearGradient id="Gradient_bez_nazwy_30" x1="365.96" y1="500.35" x2="365.96" y2="626.01" gradientUnits="userSpaceOnUse"><stop offset="0" stop-color="#fff"/><stop offset="1" stop-color="#231f20" stop-opacity="0"/></linearGradient><linearGradient id="Gradient_bez_nazwy_30-2" x1="422.22" y1="488.31" x2="422.22" y2="650.65" xlink:href="#Gradient_bez_nazwy_30"/><linearGradient id="Gradient_bez_nazwy_30-3" x1="547.45" y1="473.57" x2="547.45" y2="695.83" xlink:href="#Gradient_bez_nazwy_30"/><linearGradient id="Gradient_bez_nazwy_30-4" x1="849.75" y1="539.91" x2="849.75" y2="571.72" xlink:href="#Gradient_bez_nazwy_30"/><linearGradient id="Gradient_bez_nazwy_30-5" x1="907.37" y1="539.91" x2="907.38" y2="571.72" xlink:href="#Gradient_bez_nazwy_30"/><linearGradient id="Gradient_bez_nazwy_30-6" x1="965" y1="539.91" x2="965" y2="571.72" xlink:href="#Gradient_bez_nazwy_30"/><linearGradient id="Gradient_bez_nazwy_30-7" x1="1015.96" y1="539.91" x2="1015.96" y2="571.72" xlink:href="#Gradient_bez_nazwy_30"/><linearGradient id="Gradient_bez_nazwy_30-8" x1="1070.25" y1="539.91" x2="1070.25" y2="571.72" xlink:href="#Gradient_bez_nazwy_30"/><linearGradient id="Gradient_bez_nazwy_30-9" x1="962.28" y1="443.93" x2="962.28" y2="599.94" xlink:href="#Gradient_bez_nazwy_30"/><linearGradient id="Gradient_bez_nazwy_30-10" x1="1377.02" y1="471.11" x2="1377.02" y2="695.94" xlink:href="#Gradient_bez_nazwy_30"/><linearGradient id="Gradient_bez_nazwy_30-11" x1="1502.44" y1="485.11" x2="1502.44" y2="650.8" xlink:href="#Gradient_bez_nazwy_30"/><linearGradient id="Gradient_bez_nazwy_30-12" x1="1558.99" y1="496.61" x2="1558.99" y2="626.18" xlink:href="#Gradient_bez_nazwy_30"/></defs><path class="cls-1" d="M974.55,341.68v.57h4v-.57Z" transform="translate(-266.04 -198.23)"/><path class="cls-1" d="M1131.58,326.25h-43.3V294.79l-21.88-2.25c-2.29-52.36-49.14-94.31-106.4-94.31s-104.11,42-106.4,94.31l-21.88,2.25v31.46h-43.3a33.1,33.1,0,0,0-33.06,33.06V559.86a33.1,33.1,0,0,0,33.06,33.06h343.16a33.1,33.1,0,0,0,33.06-33.06V359.31A33.1,33.1,0,0,0,1131.58,326.25Zm-45.46,193.1h-29.61V342.25h29.61ZM978.55,342.25h-4v177.1H944.94V342.25h29.61v-.57h4v.57h74v177.1h-74Zm-111.06,0h73.45v177.1H867.49Zm92.51-139c54.31,0,98.8,39.43,101.38,88.8L960,281.61,858.62,292C861.2,242.66,905.69,203.23,960,203.23ZM839.72,302,960,289.65,1080.28,302v24.24H839.72Zm-5.84,40.24h29.61v177.1H833.88Zm-62.52,17.06a17.08,17.08,0,0,1,17.06-17.06h41.46v177.1H785.09c-5,0-9.71,2.21-13.73,6.34Zm377.28,200.55a17.08,17.08,0,0,1-17.06,17.06H788.42a17.08,17.08,0,0,1-17.06-17.06v-21.8c.43-.91.89-1.79,1.38-2.62,3.45-5.86,7.84-9.09,12.35-9.09h349.82c5.34,0,10.33,4.58,13.73,11.74Zm0-34.2c-3.94-4-8.64-6.31-13.73-6.31h-44.79V342.25h41.46a17.08,17.08,0,0,1,17.06,17.06Z" transform="translate(-266.04 -198.23)"/><path class="cls-1" d="M1020.23,539.78h-8.54a5.32,5.32,0,0,0-5.32,5.32V565a5.32,5.32,0,0,0,5.32,5.32h8.54a5.32,5.32,0,0,0,5.32-5.32V545.1A5.32,5.32,0,0,0,1020.23,539.78Zm2.32,25.19a2.32,2.32,0,0,1-2.32,2.32h-8.54a2.32,2.32,0,0,1-2.32-2.32V545.1a2.32,2.32,0,0,1,2.32-2.32h8.54a2.32,2.32,0,0,1,2.32,2.32Z" transform="translate(-266.04 -198.23)"/><path class="cls-1" d="M911.65,539.78h-8.54a5.33,5.33,0,0,0-5.33,5.32V565a5.33,5.33,0,0,0,5.33,5.32h8.54A5.32,5.32,0,0,0,917,565V545.1A5.33,5.33,0,0,0,911.65,539.78ZM914,565a2.32,2.32,0,0,1-2.32,2.32h-8.54a2.33,2.33,0,0,1-2.33-2.32V545.1a2.33,2.33,0,0,1,2.33-2.32h8.54A2.32,2.32,0,0,1,914,545.1Z" transform="translate(-266.04 -198.23)"/><path class="cls-1" d="M854,539.78h-8.54a5.32,5.32,0,0,0-5.32,5.32V565a5.32,5.32,0,0,0,5.32,5.32H854a5.32,5.32,0,0,0,5.32-5.32V545.1A5.33,5.33,0,0,0,854,539.78ZM856.34,565a2.32,2.32,0,0,1-2.32,2.32h-8.54a2.32,2.32,0,0,1-2.32-2.32V545.1a2.32,2.32,0,0,1,2.32-2.32H854a2.32,2.32,0,0,1,2.32,2.32Z" transform="translate(-266.04 -198.23)"/><path class="cls-1" d="M1074.52,539.78H1066a5.33,5.33,0,0,0-5.32,5.32V565a5.32,5.32,0,0,0,5.32,5.32h8.54a5.32,5.32,0,0,0,5.32-5.32V545.1A5.32,5.32,0,0,0,1074.52,539.78Zm2.32,25.19a2.32,2.32,0,0,1-2.32,2.32H1066a2.32,2.32,0,0,1-2.32-2.32V545.1a2.32,2.32,0,0,1,2.32-2.32h8.54a2.32,2.32,0,0,1,2.32,2.32Z" transform="translate(-266.04 -198.23)"/><path class="cls-1" d="M969.28,539.78h-8.55a5.33,5.33,0,0,0-5.32,5.32V565a5.32,5.32,0,0,0,5.32,5.32h8.55A5.32,5.32,0,0,0,974.6,565V545.1A5.33,5.33,0,0,0,969.28,539.78ZM971.6,565a2.32,2.32,0,0,1-2.32,2.32h-8.55a2.32,2.32,0,0,1-2.32-2.32V545.1a2.32,2.32,0,0,1,2.32-2.32h8.55a2.32,2.32,0,0,1,2.32,2.32Z" transform="translate(-266.04 -198.23)"/><path class="cls-1" d="M974.55,341.68v.57h4v-.57Z" transform="translate(-266.04 -198.23)"/><path class="cls-1" d="M1559.28,443.27q0,3.18-.07,6.35-.18,9.35-.9,18.46-.66,8.32-1.74,16.44c-.45,3.34-.94,6.64-1.5,9.91-12.89,76.74-54.06,135.81-105.27,148.91a220.75,220.75,0,0,0,14.13-22.86c20.32-37.63,33.41-84.89,38-136.07.13-1.44.25-2.9.37-4.35q.75-9.53,1.12-19.21.28-7.85.32-15.78c0-.6,0-1.2,0-1.8,0-66.74-14.13-129.67-39.81-177.2a222.45,222.45,0,0,0-14.12-22.86C1511.92,259.1,1559.28,342.62,1559.28,443.27Z" transform="translate(-266.04 -198.23)"/><path class="cls-1" d="M1491.74,443.27v.89q0,7.68-.29,15.25-.35,10-1.14,19.74l-.27,3.23c-10.09,115.37-64.14,203.44-129.3,203.44-38.31,0-72.79-30.47-96.74-79,14.17,15,30.58,23.6,48.08,23.6,49.43,0,90.21-68.48,96.19-157l.21-3.24q.54-9.5.55-19.27v-.28q0-6.18-.24-12.25c-3.47-93.3-45.44-167-96.71-167-23.39,0-44.85,15.34-61.6,40.89,23.31-67.1,64-111.54,110.26-111.54C1433.09,200.73,1491.74,309.32,1491.74,443.27Z" transform="translate(-266.04 -198.23)"/><path class="cls-1" d="M1347.52,450.89c0,4.05-.2,8-.57,11.85-.24,2.34-.54,4.64-.9,6.88-4.35,27.11-17.92,46.88-34,46.88-16.77,0-30.81-21.57-34.49-50.54q-54.88-2.74-112.95-5l-3.67-.15.5-12.7.53-13.69.34-8.58,2.3.09q58.39,2.31,113.68,5.07c4.55-26.48,18-45.67,33.76-45.67,16.53,0,30.42,21,34.33,49.31q.72,5.18,1,10.64C1347.48,447.09,1347.52,449,1347.52,450.89Z" transform="translate(-266.04 -198.23)"/><path class="cls-2" d="M1658.28,459.15l-2.63,24.58-1.1,10.22q-11.43-1.23-23.21-2.42l1.21-11.89h0l-1.2,11.89L1630.07,504l-14.77-1.47q-.66,2.55-1.39,5.06c-17.55,61.5-59.57,106.43-109.84,112.8,29-28.45,50.17-72.68,58.85-124.29q.91-5.37,1.63-10.85,1-7.9,1.69-16,.77-9.33,1-18.89c0-2.34.07-4.69.07-7,0-73.7-24.73-139.31-63.21-177.07,66.49,8.42,118.54,84.3,118.67,176.73l13.4,1.34-1.27,12.44-1.5,14.77,1.51-14.77Q1646.76,457.91,1658.28,459.15Z" transform="translate(-266.04 -198.23)"/><path class="cls-2" d="M474.53,643.34c-50.38-12.89-91.06-70.28-104.62-145.22q-1.23-6.71-2.15-13.6-1.12-8.4-1.79-17-.68-8.82-.85-17.86-.08-3.17-.07-6.35c0-100.65,47.36-184.17,109.47-200.06a222.45,222.45,0,0,0-14.12,22.86c-25.68,47.53-39.81,110.46-39.81,177.2,0,.6,0,1.2,0,1.8q0,7.67.3,15.25.36,9.94,1.14,19.74c.2,2.53.42,5.06.67,7.57,4.83,49.94,17.79,96,37.69,132.85A220.75,220.75,0,0,0,474.53,643.34Z" transform="translate(-266.04 -198.23)"/><path class="cls-1" d="M660.33,606.8c-24,48.55-58.43,79-96.74,79-64.58,0-118.23-86.49-129-200.33-.2-2.1-.38-4.22-.55-6.34q-.81-10-1.16-20.25-.25-7.32-.27-14.74v-.89c0-133.95,58.65-242.54,131-242.54,46.28,0,86.95,44.44,110.26,111.54-16.75-25.55-38.21-40.89-61.6-40.89-51.27,0-93.24,73.68-96.71,167q-.22,5.86-.24,11.84v.69c0,7.36.24,14.62.71,21.74,0,.26,0,.51,0,.77,6,88.52,46.76,157,96.19,157C629.75,630.4,646.16,621.81,660.33,606.8Z" transform="translate(-266.04 -198.23)"/><path class="cls-1" d="M763.36,460.76l-8,.32q-55.75,2.24-108.62,4.88c-3.68,29-17.72,50.54-34.49,50.54-16,0-29.62-19.77-34-46.88-.26-1.59-.48-3.21-.67-4.85a118.13,118.13,0,0,1-.8-13.88q0-3,.15-6c.17-3.52.49-7,1-10.3,3.91-28.34,17.8-49.31,34.33-49.31,15.81,0,29.21,19.19,33.76,45.67q53.21-2.65,109.35-4.9l6.63-.26.33,8.42L762.9,449Z" transform="translate(-266.04 -198.23)"/><path class="cls-2" d="M362.06,499.82c9.07,50,29.92,92.78,58.2,120.53-49.1-6.22-90.33-49.24-108.59-108.54q-1.41-4.59-2.64-9.32L294.26,504,293,491.53q-11.79,1.19-23.21,2.42l-1.18-11L266,459.15q11.54-1.25,23.41-2.44l1.5,14.77-1.49-14.77-1.27-12.44,13.4-1.34c.13-92.43,52.18-168.31,118.67-176.73C381.78,304,357.05,369.57,357.05,443.27c0,2.35,0,4.7.07,7q.19,9.24.91,18.28.66,8.42,1.75,16.62Q360.76,492.61,362.06,499.82Z" transform="translate(-266.04 -198.23)"/><text class="cls-3" transform="matrix(0.78, -0.06, 0.08, 1, 403.96, 559.61)">A</text><text class="cls-3" transform="matrix(0.78, -0.04, 0.06, 1, 473.24, 554.27)">M</text><text class="cls-3" transform="translate(566.83 549.32) rotate(-1.86) scale(0.78 1)">B</text><text class="cls-3" transform="translate(641.53 547.03) rotate(-0.71) scale(0.78 1)">A</text><text class="cls-3" transform="translate(711.08 546.26) rotate(0.43) scale(0.78 1)">S</text><text class="cls-3" transform="matrix(0.78, 0.02, -0.03, 1, 781.69, 546.9)">A</text><text class="cls-3" transform="translate(851.16 548.92) rotate(2.83) scale(0.78 1)">D</text><text class="cls-3" transform="translate(925.73 552.74) rotate(4.08) scale(0.78 1)">A</text><text class="cls-3" transform="translate(995.36 557.94) rotate(4.97) scale(0.78 1)"> </text><text class="cls-4" transform="translate(561.72 659.39) rotate(-2.75) scale(0.78 1)">F</text><text class="cls-4" transform="translate(604.49 657.34) rotate(-1.73) scale(0.78 1)">O</text><text class="cls-4" transform="translate(660.17 655.74) rotate(-0.56) scale(0.78 1)">R</text><text class="cls-4" transform="translate(715.06 655.19) rotate(0.8) scale(0.78 1)">M</text><text class="cls-4" transform="translate(785.55 656.39) rotate(2.14) scale(0.78 1)">Y</text><g class="cls-5"><path class="cls-6" d="M362.06,499.82c9.07,50,29.92,92.78,58.2,120.53-49.1-6.22-90.33-49.24-108.59-108.54Q335.83,505.59,362.06,499.82Z" transform="translate(-266.04 -198.23)"/><path class="cls-7" d="M460.4,620.48a220.75,220.75,0,0,0,14.13,22.86c-50.38-12.89-91.06-70.28-104.62-145.22q25.53-5.47,52.8-10.49C427.54,537.57,440.5,583.65,460.4,620.48Z" transform="translate(-266.04 -198.23)"/><path class="cls-8" d="M660.33,606.8c-24,48.55-58.43,79-96.74,79-64.58,0-118.23-86.49-129-200.33q39.1-6.93,81.44-12.86c0,.26,0,.51,0,.77,6,88.52,46.76,157,96.19,157C629.75,630.4,646.16,621.81,660.33,606.8Z" transform="translate(-266.04 -198.23)"/><path class="cls-9" d="M854,539.78h-8.54a5.32,5.32,0,0,0-5.32,5.32V565a5.32,5.32,0,0,0,5.32,5.32H854a5.32,5.32,0,0,0,5.32-5.32V545.1A5.33,5.33,0,0,0,854,539.78ZM856.34,565a2.32,2.32,0,0,1-2.32,2.32h-8.54a2.32,2.32,0,0,1-2.32-2.32V545.1a2.32,2.32,0,0,1,2.32-2.32H854a2.32,2.32,0,0,1,2.32,2.32Z" transform="translate(-266.04 -198.23)"/><path class="cls-10" d="M911.65,539.78h-8.54a5.33,5.33,0,0,0-5.33,5.32V565a5.33,5.33,0,0,0,5.33,5.32h8.54A5.32,5.32,0,0,0,917,565V545.1A5.33,5.33,0,0,0,911.65,539.78ZM914,565a2.32,2.32,0,0,1-2.32,2.32h-8.54a2.33,2.33,0,0,1-2.33-2.32V545.1a2.33,2.33,0,0,1,2.33-2.32h8.54A2.32,2.32,0,0,1,914,545.1Z" transform="translate(-266.04 -198.23)"/><path class="cls-11" d="M969.28,539.78h-8.55a5.33,5.33,0,0,0-5.32,5.32V565a5.32,5.32,0,0,0,5.32,5.32h8.55A5.32,5.32,0,0,0,974.6,565V545.1A5.33,5.33,0,0,0,969.28,539.78ZM971.6,565a2.32,2.32,0,0,1-2.32,2.32h-8.55a2.32,2.32,0,0,1-2.32-2.32V545.1a2.32,2.32,0,0,1,2.32-2.32h8.55a2.32,2.32,0,0,1,2.32,2.32Z" transform="translate(-266.04 -198.23)"/><path class="cls-12" d="M1020.23,539.78h-8.54a5.32,5.32,0,0,0-5.32,5.32V565a5.32,5.32,0,0,0,5.32,5.32h8.54a5.32,5.32,0,0,0,5.32-5.32V545.1A5.32,5.32,0,0,0,1020.23,539.78Zm2.32,25.19a2.32,2.32,0,0,1-2.32,2.32h-8.54a2.32,2.32,0,0,1-2.32-2.32V545.1a2.32,2.32,0,0,1,2.32-2.32h8.54a2.32,2.32,0,0,1,2.32,2.32Z" transform="translate(-266.04 -198.23)"/><path class="cls-13" d="M1074.52,539.78H1066a5.33,5.33,0,0,0-5.32,5.32V565a5.32,5.32,0,0,0,5.32,5.32h8.54a5.32,5.32,0,0,0,5.32-5.32V545.1A5.32,5.32,0,0,0,1074.52,539.78Zm2.32,25.19a2.32,2.32,0,0,1-2.32,2.32H1066a2.32,2.32,0,0,1-2.32-2.32V545.1a2.32,2.32,0,0,1,2.32-2.32h8.54a2.32,2.32,0,0,1,2.32,2.32Z" transform="translate(-266.04 -198.23)"/><path class="cls-14" d="M1164.64,448.22l-3.17-.16q-6.4-.35-12.83-.64v78.24c-3.94-4-8.64-6.31-13.73-6.31h-44.79V445.12l-4-.13v74.36h-29.61V444.22l-4-.09v75.22h-74V443.28h-4v76.07H944.94v-76l-4,0v76H867.49V444.67l-4,.12v74.56H833.88v-73.6c-1.34,0-2.67.09-4,.15v73.45H785.09c-5,0-9.71,2.21-13.73,6.34V448.57l-8.46.46-7.54.43c-62.06,3.63-121.57,8.79-177.75,15.31.19,1.64.41,3.26.67,4.85,4.35,27.11,17.92,46.88,34,46.88,16.77,0,30.81-21.57,34.49-50.54q52.85-2.64,108.62-4.88v98.78a33.1,33.1,0,0,0,33.06,33.06h343.16a33.1,33.1,0,0,0,33.06-33.06V460.91q58,2.31,112.95,5c3.68,29,17.72,50.54,34.49,50.54,16.05,0,29.62-19.77,34-46.88.36-2.24.66-4.54.9-6.88C1289.25,456.42,1228.22,451.52,1164.64,448.22Zm-16,111.64a17.08,17.08,0,0,1-17.06,17.06H788.42a17.08,17.08,0,0,1-17.06-17.06v-21.8c.43-.91.89-1.79,1.38-2.62,3.45-5.86,7.84-9.09,12.35-9.09h349.82c5.34,0,10.33,4.58,13.73,11.74Z" transform="translate(-266.04 -198.23)"/><path class="cls-15" d="M1490,482.38c-10.09,115.37-64.14,203.44-129.3,203.44-38.31,0-72.79-30.47-96.74-79,14.17,15,30.58,23.6,48.08,23.6,49.43,0,90.21-68.48,96.19-157l.21-3.24Q1450.74,475.76,1490,482.38Z" transform="translate(-266.04 -198.23)"/><path class="cls-16" d="M1555.07,494.43c-12.89,76.74-54.06,135.81-105.27,148.91a220.75,220.75,0,0,0,14.13-22.86c20.32-37.63,33.41-84.89,38-136.07Q1529.31,489.2,1555.07,494.43Z" transform="translate(-266.04 -198.23)"/><path class="cls-17" d="M1613.91,507.55c-17.55,61.5-59.57,106.43-109.84,112.8,29-28.45,50.17-72.68,58.85-124.29Q1589.36,501.55,1613.91,507.55Z" transform="translate(-266.04 -198.23)"/></g></svg>